<?xml version="1.0" encoding="utf-8"?>
<!-- Generator: Adobe Illustrator 18.0.0, SVG Export Plug-In . SVG Version: 6.00 Build 0)  -->
<!DOCTYPE svg PUBLIC "-//W3C//DTD SVG 1.1//EN" "http://www.w3.org/Graphics/SVG/1.1/DTD/svg11.dtd">
<svg version="1.1" id="Layer_1" xmlns="http://www.w3.org/2000/svg" xmlns:xlink="http://www.w3.org/1999/xlink" x="0px" y="0px"
	 viewBox="323.3 0 253.3 100" enable-background="new 323.3 0 253.3 100" xml:space="preserve">
<title>PoweredByRectangle_Blue</title>
<polygon fill="#0F3443" points="354.7,63.7 359,63.7 359,46.5 364.4,46.5 364.4,42.2 349.3,42.2 349.3,46.5 354.7,46.5 "/>
<polygon fill="#0F3443" points="378.4,63.7 382.7,63.7 382.7,42.1 378.4,42.1 378.4,50.8 371.9,50.8 371.9,42.1 367.6,42.1 
	367.6,63.7 371.9,63.7 371.9,55.1 378.4,55.1 "/>
<polygon fill="#0F3443" points="398.7,59.4 390.7,59.4 390.7,55.1 397.6,55.1 397.6,50.8 390.7,50.8 390.7,46.5 398.4,46.5 
	398.4,42.1 386.3,42.1 386.3,63.7 398.7,63.7 "/>
<polygon fill="#0F3443" points="421.5,51.3 413,41.9 411.6,41.9 411.6,63.8 415.9,63.8 415.9,51.7 421.5,57.5 427,51.7 427,63.8 
	431.3,63.8 431.3,41.9 430,41.9 "/>
<path fill="#0F3443" d="M446,41.8c-14.8,0-14.8,22.2,0,22.2C460.8,64.1,460.8,41.8,446,41.8z M446,59.6c-8.6,0-8.6-13.3,0-13.3
	S454.6,59.6,446,59.6z"/>
<rect x="481.6" y="42.2" fill="#0F3443" width="4.3" height="21.6"/>
<polygon fill="#0F3443" points="493.9,59.4 493.9,55.1 500.8,55.1 500.8,50.8 493.9,50.8 493.9,46.5 501.6,46.5 501.6,42.2 
	489.5,42.2 489.5,63.8 501.9,63.8 501.9,59.4 "/>
<path fill="#0F3443" d="M520.8,42.4h-6.4V64h6.4C535.2,64,535.2,42.4,520.8,42.4z M520.8,59.7h-2.1V46.7h2.1
	C529.2,46.7,529.2,59.7,520.8,59.7z"/>
<path fill="#0F3443" d="M547.7,53.2c1.4-0.9,1.9-2.6,2-4.3c0.1-3.8-2.3-6.5-6.1-6.5H535V64h8.5c3.5,0,6.4-2.9,6.4-6.5c0,0,0,0,0,0
	C549.9,55.8,549.1,54.2,547.7,53.2z M539.4,46.7h3.8c1.2,0.1,2.1,1.1,2,2.3c-0.1,1.1-0.9,1.9-2,2h-3.8V46.7z M543.2,59.7h-3.8v-4.3
	h3.8c1.2,0,2.1,0.9,2.2,2.1c0,0,0,0.1,0,0.1C545.4,58.7,544.4,59.7,543.2,59.7C543.2,59.7,543.2,59.7,543.2,59.7L543.2,59.7z"/>
<polygon fill="#0F3443" points="468.3,53.8 462.6,42.2 457.7,42.2 467.8,64.2 468.8,64.2 479,42.2 474,42.2 "/>
<path fill="#0F3443" d="M561.4,90.9c9.1,0,15.2-6.1,15.2-15.2V15.2c0-9.1-6.1-15.2-15.2-15.2H338.6c-9.1,0-15.2,6.1-15.2,15.2V100
	l7.8-9.1l0,0V15.2c0-4.1,3.3-7.4,7.4-7.4h222.9c4.1,0,7.4,3.3,7.4,7.4v60.5c0,4.1-3.3,7.4-7.4,7.4H350.1l-7.8,7.8l0-0.1L561.4,90.9z
	"/>
<path fill="#0F3443" d="M349.7,32.9v-9.3h3.7c3.6,0,3.6,5.8,0,5.8h-1.8v3.6L349.7,32.9L349.7,32.9z M353.2,27.5c1.2,0,1.2-2.1,0-2.1
	h-1.6v2.1H353.2z"/>
<path fill="#0F3443" d="M363.2,23.4c6.4,0,6.4,9.6,0,9.6C356.8,33,356.8,23.4,363.2,23.4z M363.2,25.3c-3.7,0-3.7,5.8,0,5.8
	S367,25.3,363.2,25.3L363.2,25.3z"/>
<path fill="#0F3443" d="M373.8,33.1l-3.8-9.5h2.1l1.9,4.8l1.8-4.7h0.1l1.8,4.7l1.9-4.8h2.1l-3.8,9.5h-0.3l-1.7-4.1l-1.7,4.2
	L373.8,33.1L373.8,33.1z"/>
<path fill="#0F3443" d="M384,32.9v-9.3h4.6v1.9h-2.8v1.9h2.5v1.9h-2.5V31h3v1.9H384L384,32.9z"/>
<path fill="#0F3443" d="M396.4,32.9l-1.9-3.6h-0.9v3.6h-1.9v-9.3h3.7c3.3,0,3.7,4.7,0.9,5.5l2.2,3.8L396.4,32.9L396.4,32.9z
	 M393.7,27.5h1.6c1.2,0,1.2-2.1,0-2.1h-1.6V27.5z"/>
<path fill="#0F3443" d="M401,32.9v-9.3h4.7v1.9h-2.8v1.9h2.5v1.9h-2.5V31h3v1.9H401L401,32.9z"/>
<path fill="#0F3443" d="M411.5,32.9h-2.8v-9.3h2.8C417.7,23.5,417.7,32.9,411.5,32.9z M410.6,25.4V31h0.9c3.6,0,3.6-5.6,0-5.6H410.6
	z"/>
<path fill="#0F3443" d="M435.3,28.7l-3.3-5.1h2.3l1.9,3.2l1.9-3.2h2.3l-3.3,5.1v4.2h-1.9L435.3,28.7L435.3,28.7z"/>
<path fill="#0F3443" d="M429.5,28.3c0.6-0.5,0.9-1.1,0.9-1.9c0.1-1.4-0.9-2.7-2.3-2.8c-0.1,0-0.2,0-0.4,0H424v9.3h3.7
	c1.5,0,2.8-1.3,2.8-2.8c0,0,0,0,0,0C430.4,29.4,430.1,28.7,429.5,28.3z M425.9,25.5h1.7c0.5,0.1,0.9,0.6,0.8,1.1
	c-0.1,0.4-0.4,0.7-0.8,0.8h-1.7V25.5z M427.5,31.1h-1.7v-1.9h1.7c0.5,0,0.9,0.4,0.9,0.9c0,0,0,0,0,0
	C428.5,30.7,428.1,31.1,427.5,31.1C427.6,31.1,427.5,31.1,427.5,31.1L427.5,31.1z"/>
</svg>
