<?xml version="1.0" encoding="utf-8"?>
<!-- Generator: Adobe Illustrator 18.0.0, SVG Export Plug-In . SVG Version: 6.00 Build 0)  -->
<!DOCTYPE svg PUBLIC "-//W3C//DTD SVG 1.1//EN" "http://www.w3.org/Graphics/SVG/1.1/DTD/svg11.dtd">
<svg version="1.1" id="Layer_2" xmlns="http://www.w3.org/2000/svg" xmlns:xlink="http://www.w3.org/1999/xlink" x="0px" y="0px"
	 viewBox="0 0 22.2 22.9" enable-background="new 0 0 22.2 22.9" xml:space="preserve">
<path fill="#FFFFFF" d="M16.1,21.8L1,5.9C-0.4,4.5-0.3,2.3,1.1,1l0,0C2.5-0.4,4.7-0.3,6,1.1L21.2,17c1.3,1.4,1.3,3.6-0.1,4.9l0,0
	C19.7,23.3,17.5,23.2,16.1,21.8z"/>
<path fill="none" stroke="#FFFFFF" stroke-width="4" stroke-miterlimit="10" d="M-9.1,3.5h-2c-7.7,0-14-6.3-14-14v-2
	c0-7.7,6.3-14,14-14h2c7.7,0,14,6.3,14,14v2C4.9-2.8-1.3,3.5-9.1,3.5z"/>
</svg>
